<?xml version="1.0" encoding="UTF-8"?>
<svg width="200" height="200" viewBox="0 0 200 200" xmlns="http://www.w3.org/2000/svg">
  <g>
    <path fill="#e1a845" d="m 30,40 v 70 H 20 v 10 h 10 v 40 h 10 v 10 h 10 v 10 h 30 v 10 h 40 v -10 h 30 v -10 h 10 v -10 h 10 v -40 h 10 V 110 H 170 V 40 Z"/>
    <path fill="#c57835" d="m 10,100 v 20 h 10 v -20 z m 10,20 v 40 h 10 v -40 z m 10,40 v 10 h 10 v -10 z m 10,10 v 10 h 10 v -10 z m 10,10 v 10 h 30 v -10 z m 30,10 v 10 h 40 v -10 z m 40,0 h 30 v -10 h -30 z m 30,-10 h 10 v -10 h -10 z m 10,-10 h 10 v -10 h -10 z m 10,-10 h 10 v -40 h -10 z m 10,-40 h 10 V 100 H 180 Z M 80,130 v 10 h 40 v -10 z"/>
    <path fill="#7e659b" d="m 20,70 v 10 30 H 30 V 80 h 50 v 30 H 90 V 90 h 20 v 20 h 10 V 80 h 50 v 30 h 10 V 80 70 H 110 V 80 H 90 V 70 Z m 150,40 h -50 v 10 h 50 z m -90,0 H 30 v 10 h 50 z"/>
    <path fill="#8d99a4" d="M 60,10 V 20 H 40 V 40 H 30 V 70 H 80 V 60 h 20 V 50 h 10 V 10 Z m 60,0 v 40 h 10 v 10 h 10 v 10 h 30 V 40 H 160 V 20 H 140 V 10 Z"/>
    <path fill="#696f80" d="m 60,0 v 10 h 50 v 40 h 10 V 10 h 20 V 0 Z m 80,10 v 10 h 20 V 10 Z m 20,10 v 20 h 10 V 20 Z m 10,20 v 30 h 10 V 40 Z m -50,10 v 10 h 10 V 50 Z m 10,10 v 10 h 10 V 60 Z M 110,50 h -10 v 10 h 10 z M 100,60 H 80 v 10 h 20 z M 60,10 H 40 V 20 H 60 Z M 40,20 H 30 V 40 H 40 Z M 30,40 H 20 v 30 h 10 z"/>
    <path fill="#e47259" d="M 20,10 V 30 H 30 V 20 H 40 V 10 H 30 Z"/>
    <path fill="#c33c40" d="M 20,0 V 10 H 40 V 0 Z m 0,10 H 10 v 20 h 10 z m 0,20 V 40 H 30 V 30 Z"/>
    <path fill="#ffffff" d="m 40,90 v 20 H 50 V 90 Z m 90,0 v 20 h 10 V 90 Z"/>
    <path fill="#c33c40" d="m 60,140 v 10 h 10 v -10 z m 10,10 v 10 h 10 v 10 h 40 v -10 h 10 v -10 z m 60,0 h 10 v -10 h -10 z"/>
    <path fill="#1a1a1a" d="m 50,90 v 20 H 70 V 90 Z m 90,0 v 20 h 20 V 90 Z"/>
  </g>
</svg>
