<?xml version="1.0" encoding="UTF-8" standalone="no"?>
<!-- Created with Inkscape (http://www.inkscape.org/) -->

<svg
   width="200"
   height="200"
   id="svg2"
   version="1.1"
   inkscape:version="1.4.2 (ebf0e940, 2025-05-08)"
   sodipodi:docname="icon.svg"
   viewBox="0 0 200 200"
   xml:space="preserve"
   xmlns:inkscape="http://www.inkscape.org/namespaces/inkscape"
   xmlns:sodipodi="http://sodipodi.sourceforge.net/DTD/sodipodi-0.dtd"
   xmlns="http://www.w3.org/2000/svg"
   xmlns:svg="http://www.w3.org/2000/svg"
   xmlns:rdf="http://www.w3.org/1999/02/22-rdf-syntax-ns#"
   xmlns:cc="http://creativecommons.org/ns#"
   xmlns:dc="http://purl.org/dc/elements/1.1/"><sodipodi:namedview
     id="base"
     pagecolor="#ffffff"
     bordercolor="#666666"
     borderopacity="1.0"
     inkscape:pageopacity="0.0"
     inkscape:pageshadow="2"
     inkscape:zoom="2.784402"
     inkscape:cx="93.736465"
     inkscape:cy="85.296592"
     inkscape:document-units="px"
     inkscape:current-layer="layer3"
     showgrid="true"
     inkscape:window-width="1944"
     inkscape:window-height="1270"
     inkscape:window-x="241"
     inkscape:window-y="72"
     inkscape:window-maximized="0"
     inkscape:snap-grids="true"
     inkscape:snap-page="true"
     units="mm"
     showguides="false"
     inkscape:guide-bbox="true"
     inkscape:snap-global="false"
     inkscape:pagecheckerboard="true"
     inkscape:snap-nodes="true"
     inkscape:snap-others="false"
     inkscape:snap-intersection-paths="true"
     inkscape:object-nodes="false"
     inkscape:showpageshadow="2"
     inkscape:deskcolor="#d1d1d1"><inkscape:grid
       originx="0"
       type="xygrid"
       id="grid4328"
       empspacing="5"
       visible="true"
       enabled="false"
       snapvisiblegridlinesonly="true"
       units="mm"
       spacingx="3.7795276"
       spacingy="3.7795276"
       originy="1122.5197" /><sodipodi:guide
       inkscape:locked="false"
       id="guide3916"
       orientation="1,0"
       position="114.64286,-555.69826" /><sodipodi:guide
       inkscape:locked="false"
       id="guide3918"
       orientation="0,1"
       position="203.57143,475.1946" /><sodipodi:guide
       inkscape:locked="false"
       id="guide3920"
       orientation="1,0"
       position="678.94877,515.169" /><sodipodi:guide
       inkscape:locked="false"
       id="guide3922"
       orientation="0,1"
       position="747.41817,397.6125" /><sodipodi:guide
       inkscape:locked="false"
       id="guide3924"
       orientation="0,1"
       position="100.71429,-495.51969" /><sodipodi:guide
       position="36.830357,476.9803"
       orientation="1,0"
       id="guide844"
       inkscape:locked="false" /><sodipodi:guide
       position="111.875,-573.73397"
       orientation="0,1"
       id="guide846"
       inkscape:locked="false" /><sodipodi:guide
       position="756.96428,398.0517"
       orientation="1,0"
       id="guide848"
       inkscape:locked="false" /></sodipodi:namedview><defs
     id="defs4" /><metadata
     id="metadata7"><rdf:RDF><cc:Work
         rdf:about=""><dc:format>image/svg+xml</dc:format><dc:type
           rdf:resource="http://purl.org/dc/dcmitype/StillImage" /><cc:license
           rdf:resource="http://creativecommons.org/publicdomain/zero/1.0/" /></cc:Work><cc:License
         rdf:about="http://creativecommons.org/publicdomain/zero/1.0/"><cc:permits
           rdf:resource="http://creativecommons.org/ns#Reproduction" /><cc:permits
           rdf:resource="http://creativecommons.org/ns#Distribution" /><cc:permits
           rdf:resource="http://creativecommons.org/ns#DerivativeWorks" /></cc:License></rdf:RDF></metadata><g
     style="display:inline"
     inkscape:label="Print"
     id="layer2"
     inkscape:groupmode="layer" /><g
     style="display:inline"
     inkscape:label="Cut"
     id="layer3"
     inkscape:groupmode="layer"><path
       id="rect49"
       style="display:inline;fill:#e1a845;stroke-width:3.77953;fill-opacity:1"
       d="m 30,40 v 70 H 20 v 10 h 10 v 40 h 10 v 10 h 10 v 10 h 30 v 10 h 40 v -10 h 30 v -10 h 10 v -10 h 10 v -40 h 10 V 110 H 170 V 40 Z" /><path
       id="rect26"
       style="display:inline;fill:#c57835;stroke-width:3.77953;fill-opacity:1"
       d="m 10,100 v 20 h 10 v -20 z m 10,20 v 40 h 10 v -40 z m 10,40 v 10 h 10 v -10 z m 10,10 v 10 h 10 v -10 z m 10,10 v 10 h 30 v -10 z m 30,10 v 10 h 40 v -10 z m 40,0 h 30 v -10 h -30 z m 30,-10 h 10 v -10 h -10 z m 10,-10 h 10 v -10 h -10 z m 10,-10 h 10 v -40 h -10 z m 10,-40 h 10 V 100 H 180 Z M 80,130 v 10 h 40 v -10 z" /><path
       id="rect13"
       style="display:inline;fill:#7e659b;stroke-width:3.77952;fill-opacity:1"
       d="m 20,70 v 10 30 H 30 V 80 h 50 v 30 H 90 V 90 h 20 v 20 h 10 V 80 h 50 v 30 h 10 V 80 70 H 110 V 80 H 90 V 70 Z m 150,40 h -50 v 10 h 50 z m -90,0 H 30 v 10 h 50 z" /><path
       id="rect45"
       style="display:inline;fill:#8d99a4;stroke-width:3.77953;fill-opacity:1"
       d="M 60,10 V 20 H 40 V 40 H 30 V 70 H 80 V 60 h 20 V 50 h 10 V 10 Z m 60,0 v 40 h 10 v 10 h 10 v 10 h 30 V 40 H 160 V 20 H 140 V 10 Z" /><path
       id="rect1"
       style="display:inline;fill:#696f80;stroke-width:3.77953;fill-opacity:1"
       d="m 60,0 v 10 h 50 v 40 h 10 V 10 h 20 V 0 Z m 80,10 v 10 h 20 V 10 Z m 20,10 v 20 h 10 V 20 Z m 10,20 v 30 h 10 V 40 Z m -50,10 v 10 h 10 V 50 Z m 10,10 v 10 h 10 V 60 Z M 110,50 h -10 v 10 h 10 z M 100,60 H 80 v 10 h 20 z M 60,10 H 40 V 20 H 60 Z M 40,20 H 30 V 40 H 40 Z M 30,40 H 20 v 30 h 10 z" /><path
       id="rect25"
       style="display:inline;fill:#e47259;stroke-width:3.77954;fill-opacity:1"
       d="M 20,10 V 30 H 30 V 20 H 40 V 10 H 30 Z" /><path
       id="rect22"
       style="display:inline;fill:#c33c40;stroke-width:3.77953;fill-opacity:1"
       d="M 20,0 V 10 H 40 V 0 Z m 0,10 H 10 v 20 h 10 z m 0,20 V 40 H 30 V 30 Z" /><path
       id="rect42"
       style="display:inline;fill:#ffffff;stroke-width:3.77953;fill-opacity:1"
       d="m 40,90 v 20 H 50 V 90 Z m 90,0 v 20 h 10 V 90 Z" /><path
       id="rect38"
       style="display:inline;fill:#c33c40;stroke-width:3.77953;fill-opacity:1"
       d="m 60,140 v 10 h 10 v -10 z m 10,10 v 10 h 10 v 10 h 40 v -10 h 10 v -10 z m 60,0 h 10 v -10 h -10 z" /><path
       id="rect43"
       style="display:inline;fill:#1a1a1a;stroke-width:3.77953"
       d="m 50,90 v 20 H 70 V 90 Z m 90,0 v 20 h 20 V 90 Z" /></g></svg>
